STARTFONT 2.1
FONT HeathkitH19
SIZE 10 75 75
FONTBOUNDINGBOX 8 10 0 -2
STARTPROPERTIES 3
FONT_DESCENT 2
FONT_ASCENT 8
DEFAULT_CHAR 9
ENDPROPERTIES
CHARS 128
STARTCHAR C0000
ENCODING 0
SWIDTH 666 0
DWIDTH 8 0
BBX 8 10 0 -2
BITMAP
18
18
18
18
18
18
18
18
18
18
ENDCHAR
STARTCHAR C0001
ENCODING 1
SWIDTH 666 0
DWIDTH 8 0
BBX 8 10 0 -2
BITMAP
00
00
00
00
ff
ff
00
00
00
00
ENDCHAR
STARTCHAR C0002
ENCODING 2
SWIDTH 666 0
DWIDTH 8 0
BBX 8 10 0 -2
BITMAP
18
18
18
18
ff
ff
18
18
18
18
ENDCHAR
STARTCHAR C0003
ENCODING 3
SWIDTH 666 0
DWIDTH 8 0
BBX 8 10 0 -2
BITMAP
00
00
00
00
f8
f8
18
18
18
18
ENDCHAR
STARTCHAR C0004
ENCODING 4
SWIDTH 666 0
DWIDTH 8 0
BBX 8 10 0 -2
BITMAP
18
18
18
18
f8
f8
00
00
00
00
ENDCHAR
STARTCHAR C0005
ENCODING 5
SWIDTH 666 0
DWIDTH 8 0
BBX 8 10 0 -2
BITMAP
18
18
18
18
1f
1f
00
00
00
00
ENDCHAR
STARTCHAR C0006
ENCODING 6
SWIDTH 666 0
DWIDTH 8 0
BBX 8 10 0 -2
BITMAP
00
00
00
00
1f
1f
18
18
18
18
ENDCHAR
STARTCHAR C0007
ENCODING 7
SWIDTH 666 0
DWIDTH 8 0
BBX 8 10 0 -2
BITMAP
00
08
08
3e
08
08
00
3e
00
00
ENDCHAR
STARTCHAR C0008
ENCODING 8
SWIDTH 666 0
DWIDTH 8 0
BBX 8 10 0 -2
BITMAP
00
00
08
04
3e
04
08
00
00
00
ENDCHAR
STARTCHAR C0009
ENCODING 9
SWIDTH 666 0
DWIDTH 8 0
BBX 8 10 0 -2
BITMAP
aa
55
aa
55
aa
55
aa
55
aa
55
ENDCHAR
STARTCHAR C000a
ENCODING 10
SWIDTH 666 0
DWIDTH 8 0
BBX 8 10 0 -2
BITMAP
00
00
08
00
3e
00
08
00
00
00
ENDCHAR
STARTCHAR C000b
ENCODING 11
SWIDTH 666 0
DWIDTH 8 0
BBX 8 10 0 -2
BITMAP
00
00
08
08
2a
1c
08
00
00
00
ENDCHAR
STARTCHAR C000c
ENCODING 12
SWIDTH 666 0
DWIDTH 8 0
BBX 8 10 0 -2
BITMAP
00
00
00
00
00
0f
0f
0f
0f
0f
ENDCHAR
STARTCHAR C000d
ENCODING 13
SWIDTH 666 0
DWIDTH 8 0
BBX 8 10 0 -2
BITMAP
00
00
00
00
00
f0
f0
f0
f0
f0
ENDCHAR
STARTCHAR C000e
ENCODING 14
SWIDTH 666 0
DWIDTH 8 0
BBX 8 10 0 -2
BITMAP
f0
f0
f0
f0
f0
00
00
00
00
00
ENDCHAR
STARTCHAR C000f
ENCODING 15
SWIDTH 666 0
DWIDTH 8 0
BBX 8 10 0 -2
BITMAP
0f
0f
0f
0f
0f
00
00
00
00
00
ENDCHAR
STARTCHAR C0010
ENCODING 16
SWIDTH 666 0
DWIDTH 8 0
BBX 8 10 0 -2
BITMAP
ff
ff
ff
ff
ff
00
00
00
00
00
ENDCHAR
STARTCHAR C0011
ENCODING 17
SWIDTH 666 0
DWIDTH 8 0
BBX 8 10 0 -2
BITMAP
0f
0f
0f
0f
0f
0f
0f
0f
0f
0f
ENDCHAR
STARTCHAR C0012
ENCODING 18
SWIDTH 666 0
DWIDTH 8 0
BBX 8 10 0 -2
BITMAP
ff
fe
fc
f8
f0
f0
e0
c0
80
80
ENDCHAR
STARTCHAR C0013
ENCODING 19
SWIDTH 666 0
DWIDTH 8 0
BBX 8 10 0 -2
BITMAP
00
00
00
00
ff
ff
18
18
18
18
ENDCHAR
STARTCHAR C0014
ENCODING 20
SWIDTH 666 0
DWIDTH 8 0
BBX 8 10 0 -2
BITMAP
18
18
18
18
f8
f8
18
18
18
18
ENDCHAR
STARTCHAR C0015
ENCODING 21
SWIDTH 666 0
DWIDTH 8 0
BBX 8 10 0 -2
BITMAP
18
18
18
18
ff
ff
00
00
00
00
ENDCHAR
STARTCHAR C0016
ENCODING 22
SWIDTH 666 0
DWIDTH 8 0
BBX 8 10 0 -2
BITMAP
18
18
18
18
1f
1f
18
18
18
18
ENDCHAR
STARTCHAR C0017
ENCODING 23
SWIDTH 666 0
DWIDTH 8 0
BBX 8 10 0 -2
BITMAP
81
c3
66
3c
18
18
3c
66
c3
81
ENDCHAR
STARTCHAR C0018
ENCODING 24
SWIDTH 666 0
DWIDTH 8 0
BBX 8 10 0 -2
BITMAP
01
03
06
0c
18
18
30
60
c0
80
ENDCHAR
STARTCHAR C0019
ENCODING 25
SWIDTH 666 0
DWIDTH 8 0
BBX 8 10 0 -2
BITMAP
80
c0
60
30
18
18
0c
06
03
01
ENDCHAR
STARTCHAR C001a
ENCODING 26
SWIDTH 666 0
DWIDTH 8 0
BBX 8 10 0 -2
BITMAP
ff
ff
00
00
00
00
00
00
00
00
ENDCHAR
STARTCHAR C001b
ENCODING 27
SWIDTH 666 0
DWIDTH 8 0
BBX 8 10 0 -2
BITMAP
00
00
00
00
00
00
00
00
ff
ff
ENDCHAR
STARTCHAR C001c
ENCODING 28
SWIDTH 666 0
DWIDTH 8 0
BBX 8 10 0 -2
BITMAP
c0
c0
c0
c0
c0
c0
c0
c0
c0
c0
ENDCHAR
STARTCHAR C001d
ENCODING 29
SWIDTH 666 0
DWIDTH 8 0
BBX 8 10 0 -2
BITMAP
03
03
03
03
03
03
03
03
03
03
ENDCHAR
STARTCHAR C001e
ENCODING 30
SWIDTH 666 0
DWIDTH 8 0
BBX 8 10 0 -2
BITMAP
00
1e
3c
3c
1c
0c
0c
0c
00
00
ENDCHAR
STARTCHAR C001f
ENCODING 31
SWIDTH 666 0
DWIDTH 8 0
BBX 8 10 0 -2
BITMAP
ff
7f
3f
1f
0f
0f
07
03
01
01
ENDCHAR
STARTCHAR C0020
ENCODING 32
SWIDTH 666 0
DWIDTH 8 0
BBX 8 10 0 -2
BITMAP
00
00
00
00
00
00
00
00
00
00
ENDCHAR
STARTCHAR C0021
ENCODING 33
SWIDTH 666 0
DWIDTH 8 0
BBX 8 10 0 -2
BITMAP
00
08
08
08
08
08
00
08
00
00
ENDCHAR
STARTCHAR C0022
ENCODING 34
SWIDTH 666 0
DWIDTH 8 0
BBX 8 10 0 -2
BITMAP
00
14
14
14
00
00
00
00
00
00
ENDCHAR
STARTCHAR C0023
ENCODING 35
SWIDTH 666 0
DWIDTH 8 0
BBX 8 10 0 -2
BITMAP
00
14
14
3e
14
3e
14
14
00
00
ENDCHAR
STARTCHAR C0024
ENCODING 36
SWIDTH 666 0
DWIDTH 8 0
BBX 8 10 0 -2
BITMAP
00
08
1e
28
1c
0a
3c
08
00
00
ENDCHAR
STARTCHAR C0025
ENCODING 37
SWIDTH 666 0
DWIDTH 8 0
BBX 8 10 0 -2
BITMAP
00
30
32
04
08
10
26
06
00
00
ENDCHAR
STARTCHAR C0026
ENCODING 38
SWIDTH 666 0
DWIDTH 8 0
BBX 8 10 0 -2
BITMAP
00
08
14
14
18
2a
24
1a
00
00
ENDCHAR
STARTCHAR C0027
ENCODING 39
SWIDTH 666 0
DWIDTH 8 0
BBX 8 10 0 -2
BITMAP
00
08
08
10
00
00
00
00
00
00
ENDCHAR
STARTCHAR C0028
ENCODING 40
SWIDTH 666 0
DWIDTH 8 0
BBX 8 10 0 -2
BITMAP
00
04
08
10
10
10
08
04
00
00
ENDCHAR
STARTCHAR C0029
ENCODING 41
SWIDTH 666 0
DWIDTH 8 0
BBX 8 10 0 -2
BITMAP
00
10
08
04
04
04
08
10
00
00
ENDCHAR
STARTCHAR C002a
ENCODING 42
SWIDTH 666 0
DWIDTH 8 0
BBX 8 10 0 -2
BITMAP
00
00
08
2a
1c
2a
08
00
00
00
ENDCHAR
STARTCHAR C002b
ENCODING 43
SWIDTH 666 0
DWIDTH 8 0
BBX 8 10 0 -2
BITMAP
00
00
08
08
3e
08
08
00
00
00
ENDCHAR
STARTCHAR C002c
ENCODING 44
SWIDTH 666 0
DWIDTH 8 0
BBX 8 10 0 -2
BITMAP
00
00
00
00
00
00
18
18
08
10
ENDCHAR
STARTCHAR C002d
ENCODING 45
SWIDTH 666 0
DWIDTH 8 0
BBX 8 10 0 -2
BITMAP
00
00
00
00
3e
00
00
00
00
00
ENDCHAR
STARTCHAR C002e
ENCODING 46
SWIDTH 666 0
DWIDTH 8 0
BBX 8 10 0 -2
BITMAP
00
00
00
00
00
00
18
18
00
00
ENDCHAR
STARTCHAR C002f
ENCODING 47
SWIDTH 666 0
DWIDTH 8 0
BBX 8 10 0 -2
BITMAP
00
01
02
04
08
10
20
40
00
00
ENDCHAR
STARTCHAR C0030
ENCODING 48
SWIDTH 666 0
DWIDTH 8 0
BBX 8 10 0 -2
BITMAP
00
1c
22
26
2a
32
22
1c
00
00
ENDCHAR
STARTCHAR C0031
ENCODING 49
SWIDTH 666 0
DWIDTH 8 0
BBX 8 10 0 -2
BITMAP
00
08
18
08
08
08
08
1c
00
00
ENDCHAR
STARTCHAR C0032
ENCODING 50
SWIDTH 666 0
DWIDTH 8 0
BBX 8 10 0 -2
BITMAP
00
1c
22
02
04
08
10
3e
00
00
ENDCHAR
STARTCHAR C0033
ENCODING 51
SWIDTH 666 0
DWIDTH 8 0
BBX 8 10 0 -2
BITMAP
00
3e
04
08
04
02
22
1c
00
00
ENDCHAR
STARTCHAR C0034
ENCODING 52
SWIDTH 666 0
DWIDTH 8 0
BBX 8 10 0 -2
BITMAP
00
04
0c
14
24
3e
04
04
00
00
ENDCHAR
STARTCHAR C0035
ENCODING 53
SWIDTH 666 0
DWIDTH 8 0
BBX 8 10 0 -2
BITMAP
00
3e
20
3c
02
02
22
1c
00
00
ENDCHAR
STARTCHAR C0036
ENCODING 54
SWIDTH 666 0
DWIDTH 8 0
BBX 8 10 0 -2
BITMAP
00
0c
10
20
3c
22
22
1c
00
00
ENDCHAR
STARTCHAR C0037
ENCODING 55
SWIDTH 666 0
DWIDTH 8 0
BBX 8 10 0 -2
BITMAP
00
3e
02
04
08
10
10
10
00
00
ENDCHAR
STARTCHAR C0038
ENCODING 56
SWIDTH 666 0
DWIDTH 8 0
BBX 8 10 0 -2
BITMAP
00
1c
22
22
1c
22
22
1c
00
00
ENDCHAR
STARTCHAR C0039
ENCODING 57
SWIDTH 666 0
DWIDTH 8 0
BBX 8 10 0 -2
BITMAP
00
1c
22
22
1e
02
04
18
00
00
ENDCHAR
STARTCHAR C003a
ENCODING 58
SWIDTH 666 0
DWIDTH 8 0
BBX 8 10 0 -2
BITMAP
00
00
18
18
00
18
18
00
00
00
ENDCHAR
STARTCHAR C003b
ENCODING 59
SWIDTH 666 0
DWIDTH 8 0
BBX 8 10 0 -2
BITMAP
00
00
18
18
00
18
18
08
10
00
ENDCHAR
STARTCHAR C003c
ENCODING 60
SWIDTH 666 0
DWIDTH 8 0
BBX 8 10 0 -2
BITMAP
00
02
04
08
10
08
04
02
00
00
ENDCHAR
STARTCHAR C003d
ENCODING 61
SWIDTH 666 0
DWIDTH 8 0
BBX 8 10 0 -2
BITMAP
00
00
00
3e
00
3e
00
00
00
00
ENDCHAR
STARTCHAR C003e
ENCODING 62
SWIDTH 666 0
DWIDTH 8 0
BBX 8 10 0 -2
BITMAP
00
20
10
08
04
08
10
20
00
00
ENDCHAR
STARTCHAR C003f
ENCODING 63
SWIDTH 666 0
DWIDTH 8 0
BBX 8 10 0 -2
BITMAP
00
1c
22
02
04
08
00
08
00
00
ENDCHAR
STARTCHAR C0040
ENCODING 64
SWIDTH 666 0
DWIDTH 8 0
BBX 8 10 0 -2
BITMAP
00
0c
12
2e
2a
2e
20
1e
00
00
ENDCHAR
STARTCHAR C0041
ENCODING 65
SWIDTH 666 0
DWIDTH 8 0
BBX 8 10 0 -2
BITMAP
00
1c
22
22
3e
22
22
22
00
00
ENDCHAR
STARTCHAR C0042
ENCODING 66
SWIDTH 666 0
DWIDTH 8 0
BBX 8 10 0 -2
BITMAP
00
3c
22
22
3c
22
22
3c
00
00
ENDCHAR
STARTCHAR C0043
ENCODING 67
SWIDTH 666 0
DWIDTH 8 0
BBX 8 10 0 -2
BITMAP
00
1c
22
20
20
20
22
1c
00
00
ENDCHAR
STARTCHAR C0044
ENCODING 68
SWIDTH 666 0
DWIDTH 8 0
BBX 8 10 0 -2
BITMAP
00
38
24
22
22
22
24
38
00
00
ENDCHAR
STARTCHAR C0045
ENCODING 69
SWIDTH 666 0
DWIDTH 8 0
BBX 8 10 0 -2
BITMAP
00
3e
20
20
3c
20
20
3e
00
00
ENDCHAR
STARTCHAR C0046
ENCODING 70
SWIDTH 666 0
DWIDTH 8 0
BBX 8 10 0 -2
BITMAP
00
3e
20
20
3c
20
20
20
00
00
ENDCHAR
STARTCHAR C0047
ENCODING 71
SWIDTH 666 0
DWIDTH 8 0
BBX 8 10 0 -2
BITMAP
00
1e
20
20
26
22
22
1e
00
00
ENDCHAR
STARTCHAR C0048
ENCODING 72
SWIDTH 666 0
DWIDTH 8 0
BBX 8 10 0 -2
BITMAP
00
22
22
22
3e
22
22
22
00
00
ENDCHAR
STARTCHAR C0049
ENCODING 73
SWIDTH 666 0
DWIDTH 8 0
BBX 8 10 0 -2
BITMAP
00
1c
08
08
08
08
08
1c
00
00
ENDCHAR
STARTCHAR C004a
ENCODING 74
SWIDTH 666 0
DWIDTH 8 0
BBX 8 10 0 -2
BITMAP
00
0e
04
04
04
04
24
18
00
00
ENDCHAR
STARTCHAR C004b
ENCODING 75
SWIDTH 666 0
DWIDTH 8 0
BBX 8 10 0 -2
BITMAP
00
22
24
28
30
28
24
22
00
00
ENDCHAR
STARTCHAR C004c
ENCODING 76
SWIDTH 666 0
DWIDTH 8 0
BBX 8 10 0 -2
BITMAP
00
20
20
20
20
20
20
3e
00
00
ENDCHAR
STARTCHAR C004d
ENCODING 77
SWIDTH 666 0
DWIDTH 8 0
BBX 8 10 0 -2
BITMAP
00
22
36
2a
2a
22
22
22
00
00
ENDCHAR
STARTCHAR C004e
ENCODING 78
SWIDTH 666 0
DWIDTH 8 0
BBX 8 10 0 -2
BITMAP
00
22
22
32
2a
26
22
22
00
00
ENDCHAR
STARTCHAR C004f
ENCODING 79
SWIDTH 666 0
DWIDTH 8 0
BBX 8 10 0 -2
BITMAP
00
1c
22
22
22
22
22
1c
00
00
ENDCHAR
STARTCHAR C0050
ENCODING 80
SWIDTH 666 0
DWIDTH 8 0
BBX 8 10 0 -2
BITMAP
00
3c
22
22
3c
20
20
20
00
00
ENDCHAR
STARTCHAR C0051
ENCODING 81
SWIDTH 666 0
DWIDTH 8 0
BBX 8 10 0 -2
BITMAP
00
1c
22
22
22
2a
24
1a
00
00
ENDCHAR
STARTCHAR C0052
ENCODING 82
SWIDTH 666 0
DWIDTH 8 0
BBX 8 10 0 -2
BITMAP
00
3c
22
22
3c
28
24
22
00
00
ENDCHAR
STARTCHAR C0053
ENCODING 83
SWIDTH 666 0
DWIDTH 8 0
BBX 8 10 0 -2
BITMAP
00
1c
22
20
1c
02
22
1c
00
00
ENDCHAR
STARTCHAR C0054
ENCODING 84
SWIDTH 666 0
DWIDTH 8 0
BBX 8 10 0 -2
BITMAP
00
3e
08
08
08
08
08
08
00
00
ENDCHAR
STARTCHAR C0055
ENCODING 85
SWIDTH 666 0
DWIDTH 8 0
BBX 8 10 0 -2
BITMAP
00
22
22
22
22
22
22
1c
00
00
ENDCHAR
STARTCHAR C0056
ENCODING 86
SWIDTH 666 0
DWIDTH 8 0
BBX 8 10 0 -2
BITMAP
00
22
22
22
14
14
08
08
00
00
ENDCHAR
STARTCHAR C0057
ENCODING 87
SWIDTH 666 0
DWIDTH 8 0
BBX 8 10 0 -2
BITMAP
00
22
22
22
2a
2a
2a
14
00
00
ENDCHAR
STARTCHAR C0058
ENCODING 88
SWIDTH 666 0
DWIDTH 8 0
BBX 8 10 0 -2
BITMAP
00
22
22
14
08
14
22
22
00
00
ENDCHAR
STARTCHAR C0059
ENCODING 89
SWIDTH 666 0
DWIDTH 8 0
BBX 8 10 0 -2
BITMAP
00
22
22
14
08
08
08
08
00
00
ENDCHAR
STARTCHAR C005a
ENCODING 90
SWIDTH 666 0
DWIDTH 8 0
BBX 8 10 0 -2
BITMAP
00
3e
02
04
08
10
20
3e
00
00
ENDCHAR
STARTCHAR C005b
ENCODING 91
SWIDTH 666 0
DWIDTH 8 0
BBX 8 10 0 -2
BITMAP
00
0e
08
08
08
08
08
0e
00
00
ENDCHAR
STARTCHAR C005c
ENCODING 92
SWIDTH 666 0
DWIDTH 8 0
BBX 8 10 0 -2
BITMAP
00
40
20
10
08
04
02
01
00
00
ENDCHAR
STARTCHAR C005d
ENCODING 93
SWIDTH 666 0
DWIDTH 8 0
BBX 8 10 0 -2
BITMAP
00
38
08
08
08
08
08
38
00
00
ENDCHAR
STARTCHAR C005e
ENCODING 94
SWIDTH 666 0
DWIDTH 8 0
BBX 8 10 0 -2
BITMAP
00
08
14
22
00
00
00
00
00
00
ENDCHAR
STARTCHAR C005f
ENCODING 95
SWIDTH 666 0
DWIDTH 8 0
BBX 8 10 0 -2
BITMAP
00
00
00
00
00
00
00
3e
00
00
ENDCHAR
STARTCHAR C0060
ENCODING 96
SWIDTH 666 0
DWIDTH 8 0
BBX 8 10 0 -2
BITMAP
00
08
08
04
00
00
00
00
00
00
ENDCHAR
STARTCHAR C0061
ENCODING 97
SWIDTH 666 0
DWIDTH 8 0
BBX 8 10 0 -2
BITMAP
00
00
00
1c
02
1e
22
1e
00
00
ENDCHAR
STARTCHAR C0062
ENCODING 98
SWIDTH 666 0
DWIDTH 8 0
BBX 8 10 0 -2
BITMAP
00
20
20
3c
22
22
22
3c
00
00
ENDCHAR
STARTCHAR C0063
ENCODING 99
SWIDTH 666 0
DWIDTH 8 0
BBX 8 10 0 -2
BITMAP
00
00
00
1c
22
20
20
1c
00
00
ENDCHAR
STARTCHAR C0064
ENCODING 100
SWIDTH 666 0
DWIDTH 8 0
BBX 8 10 0 -2
BITMAP
00
02
02
1e
22
22
22
1e
00
00
ENDCHAR
STARTCHAR C0065
ENCODING 101
SWIDTH 666 0
DWIDTH 8 0
BBX 8 10 0 -2
BITMAP
00
00
00
1c
22
3e
20
1c
00
00
ENDCHAR
STARTCHAR C0066
ENCODING 102
SWIDTH 666 0
DWIDTH 8 0
BBX 8 10 0 -2
BITMAP
00
0c
12
38
10
10
10
10
00
00
ENDCHAR
STARTCHAR C0067
ENCODING 103
SWIDTH 666 0
DWIDTH 8 0
BBX 8 10 0 -2
BITMAP
00
00
00
1a
26
22
26
1a
02
1c
ENDCHAR
STARTCHAR C0068
ENCODING 104
SWIDTH 666 0
DWIDTH 8 0
BBX 8 10 0 -2
BITMAP
00
20
20
3c
22
22
22
22
00
00
ENDCHAR
STARTCHAR C0069
ENCODING 105
SWIDTH 666 0
DWIDTH 8 0
BBX 8 10 0 -2
BITMAP
00
08
00
18
08
08
08
1c
00
00
ENDCHAR
STARTCHAR C006a
ENCODING 106
SWIDTH 666 0
DWIDTH 8 0
BBX 8 10 0 -2
BITMAP
00
02
00
02
02
02
02
02
22
1c
ENDCHAR
STARTCHAR C006b
ENCODING 107
SWIDTH 666 0
DWIDTH 8 0
BBX 8 10 0 -2
BITMAP
00
20
20
24
28
34
22
22
00
00
ENDCHAR
STARTCHAR C006c
ENCODING 108
SWIDTH 666 0
DWIDTH 8 0
BBX 8 10 0 -2
BITMAP
00
18
08
08
08
08
08
1c
00
00
ENDCHAR
STARTCHAR C006d
ENCODING 109
SWIDTH 666 0
DWIDTH 8 0
BBX 8 10 0 -2
BITMAP
00
00
00
34
2a
2a
2a
2a
00
00
ENDCHAR
STARTCHAR C006e
ENCODING 110
SWIDTH 666 0
DWIDTH 8 0
BBX 8 10 0 -2
BITMAP
00
00
00
3c
22
22
22
22
00
00
ENDCHAR
STARTCHAR C006f
ENCODING 111
SWIDTH 666 0
DWIDTH 8 0
BBX 8 10 0 -2
BITMAP
00
00
00
1c
22
22
22
1c
00
00
ENDCHAR
STARTCHAR C0070
ENCODING 112
SWIDTH 666 0
DWIDTH 8 0
BBX 8 10 0 -2
BITMAP
00
00
00
2c
32
22
32
2c
20
20
ENDCHAR
STARTCHAR C0071
ENCODING 113
SWIDTH 666 0
DWIDTH 8 0
BBX 8 10 0 -2
BITMAP
00
00
00
1a
26
22
26
1a
02
02
ENDCHAR
STARTCHAR C0072
ENCODING 114
SWIDTH 666 0
DWIDTH 8 0
BBX 8 10 0 -2
BITMAP
00
00
00
2c
32
20
20
20
00
00
ENDCHAR
STARTCHAR C0073
ENCODING 115
SWIDTH 666 0
DWIDTH 8 0
BBX 8 10 0 -2
BITMAP
00
00
00
1c
20
1c
02
1c
00
00
ENDCHAR
STARTCHAR C0074
ENCODING 116
SWIDTH 666 0
DWIDTH 8 0
BBX 8 10 0 -2
BITMAP
00
10
10
38
10
10
12
0c
00
00
ENDCHAR
STARTCHAR C0075
ENCODING 117
SWIDTH 666 0
DWIDTH 8 0
BBX 8 10 0 -2
BITMAP
00
00
00
22
22
22
26
1a
00
00
ENDCHAR
STARTCHAR C0076
ENCODING 118
SWIDTH 666 0
DWIDTH 8 0
BBX 8 10 0 -2
BITMAP
00
00
00
22
22
22
14
08
00
00
ENDCHAR
STARTCHAR C0077
ENCODING 119
SWIDTH 666 0
DWIDTH 8 0
BBX 8 10 0 -2
BITMAP
00
00
00
22
22
2a
2a
14
00
00
ENDCHAR
STARTCHAR C0078
ENCODING 120
SWIDTH 666 0
DWIDTH 8 0
BBX 8 10 0 -2
BITMAP
00
00
00
22
14
08
14
22
00
00
ENDCHAR
STARTCHAR C0079
ENCODING 121
SWIDTH 666 0
DWIDTH 8 0
BBX 8 10 0 -2
BITMAP
00
00
00
22
22
22
26
1a
02
1c
ENDCHAR
STARTCHAR C007a
ENCODING 122
SWIDTH 666 0
DWIDTH 8 0
BBX 8 10 0 -2
BITMAP
00
00
00
3e
04
08
10
3e
00
00
ENDCHAR
STARTCHAR C007b
ENCODING 123
SWIDTH 666 0
DWIDTH 8 0
BBX 8 10 0 -2
BITMAP
00
0c
10
10
20
10
10
0c
00
00
ENDCHAR
STARTCHAR C007c
ENCODING 124
SWIDTH 666 0
DWIDTH 8 0
BBX 8 10 0 -2
BITMAP
00
08
08
08
00
08
08
08
00
00
ENDCHAR
STARTCHAR C007d
ENCODING 125
SWIDTH 666 0
DWIDTH 8 0
BBX 8 10 0 -2
BITMAP
00
18
04
04
02
04
04
18
00
00
ENDCHAR
STARTCHAR C007e
ENCODING 126
SWIDTH 666 0
DWIDTH 8 0
BBX 8 10 0 -2
BITMAP
00
10
2a
04
00
00
00
00
00
00
ENDCHAR
STARTCHAR C007f
ENCODING 127
SWIDTH 666 0
DWIDTH 8 0
BBX 8 10 0 -2
BITMAP
00
00
1c
3e
3e
3e
1c
00
00
00
ENDCHAR
ENDFONT
